# xmcd
#
# Track frame offsets: 
#        150
#        13816
#        28645
#        43796
#        55272
#        73663
#        88094
#        101010
#        122274
#        135790
#        154196
#        167247
#
# Disc length: 2379 seconds
#
# Revision: 0
# Processed by: cddbd v1.5.2PL0 Copyright (c) Steve Scherf et al.
# Submitted via: ExactAudioCopy v0.99pb3
#
DISCID=9809490c
DTITLE=Oscar Peterson - Romance
DYEAR=1900
DGENRE=
TTITLE0=I'm Glad There Is You
TTITLE1=Polka Dots and Moonbeams
TTITLE2=One for My Baby
TTITLE3=I Hear Music
TTITLE4=Autumn in New York
TTITLE5=I Can't Give You Anything ButLove
TTITLE6=Spring Is Here
TTITLE7=These Foolish Things
TTITLE8=From This Moment On
TTITLE9=The Things We Did Last Summer
TTITLE10=Too Marvelous for Words
TTITLE11=But Not for Me
EXTD=
EXTT0=
EXTT1=
EXTT2=
EXTT3=
EXTT4=
EXTT5=
EXTT6=
EXTT7=
EXTT8=
EXTT9=
EXTT10=
EXTT11=
PLAYORDER=
